<svg width="11.109375" height="11.109375" viewBox="0 0 11.1094 11.1094" fill="none" xmlns="http://www.w3.org/2000/svg" xmlns:xlink="http://www.w3.org/1999/xlink">
	<desc>
			Created with Pixso.
	</desc>
	<defs/>
	<path id="Vector 189" d="M1.58 0.19L1.17 0.6C-0.24 2.01 -0.4 4.24 0.8 5.83L1.4 6.63C2.27 7.8 3.3 8.83 4.47 9.7L5.27 10.3C6.86 11.5 9.09 11.34 10.5 9.93L10.91 9.52C11.17 9.26 11.17 8.84 10.91 8.58L9.18 6.86C8.92 6.6 8.5 6.6 8.24 6.86L7.05 8.05C6.85 8.25 6.54 8.3 6.29 8.17C4.83 7.45 3.65 6.27 2.92 4.81C2.8 4.56 2.85 4.25 3.05 4.05L4.24 2.86C4.5 2.6 4.5 2.17 4.24 1.91L2.52 0.19C2.26 -0.07 1.84 -0.07 1.58 0.19Z" fill="#FFFFFF" fill-opacity="1.000000" fill-rule="evenodd"/>
</svg>
