<svg xmlns="http://www.w3.org/2000/svg" version="1.1" xmlns:xlink="http://www.w3.org/1999/xlink" width="1000" height="1000"><g clip-path="url(#SvgjsClipPath1130)"><rect width="1000" height="1000" fill="#ffffff"></rect><g transform="matrix(13.461538461538462,0,0,13.461538461538462,150,150)"><svg xmlns="http://www.w3.org/2000/svg" version="1.1" xmlns:xlink="http://www.w3.org/1999/xlink" width="52" height="52"><svg width="52.000000" height="52.000000" viewBox="0 0 52 52" fill="none" xmlns="http://www.w3.org/2000/svg" xmlns:xlink="http://www.w3.org/1999/xlink">
	<desc>
			Created with Pixso.
	</desc>
	<defs><clipPath id="SvgjsClipPath1130"><rect width="1000" height="1000" x="0" y="0" rx="200" ry="200"></rect></clipPath></defs>
	<path id="Vector" d="M14.88 25.99L14.88 51.99L16.27 51.99L17.66 51.99L17.66 37.4C17.66 29.37 17.7 22.76 17.74 22.7C17.79 22.65 17.96 22.53 18.12 22.45C18.28 22.37 19.1 21.94 19.95 21.5C20.8 21.06 21.54 20.72 21.6 20.75C21.66 20.79 21.7 27.3 21.7 36.4L21.7 51.99L25.69 51.99L29.68 51.99L29.68 38.94L29.68 25.89L28.79 25.43C28.3 25.18 27.64 24.84 27.32 24.68C27 24.52 26.51 24.27 26.24 24.13L25.75 23.88L25.75 16.86L25.74 9.83L23.59 7.88C22.4 6.8 19.96 4.59 18.16 2.96L14.88 0L14.88 25.99ZM33.38 30.78L33.38 51.99L37.02 51.99L40.66 51.99L40.66 43.77L40.66 35.55L41.32 35.05C42.17 34.39 42.51 34.07 42.62 33.82C42.69 33.66 42.71 20 42.64 19.23C42.64 19.14 42.23 18.65 41.73 18.15C41.24 17.64 40.55 16.94 40.2 16.57C39.85 16.21 39.36 15.7 39.1 15.45C38.35 14.7 37.28 13.6 36.85 13.13C36.63 12.89 35.75 11.99 34.91 11.13L33.38 9.57L33.38 30.78ZM5.4 40.36L5.4 52L7.8 51.97L10.2 51.94L10.23 41.22L10.26 30.5L9.5 30.23C9.09 30.08 8.53 29.87 8.26 29.76C7.29 29.36 5.59 28.73 5.5 28.73C5.44 28.73 5.4 33.96 5.4 40.36ZM45.75 42.52L45.75 51.99L48.87 51.99L52 51.99L51.97 44.62L51.94 37.24L50.03 35.95C48.98 35.24 47.59 34.3 46.94 33.86L45.75 33.05L45.75 42.52ZM0.04 40.43C0 40.53 -0.01 43.16 0 46.28L0.02 51.94L1.47 51.94L2.91 51.94L2.95 46.15L2.97 40.36L1.79 40.36C1.14 40.36 0.49 40.33 0.35 40.3C0.18 40.25 0.09 40.29 0.04 40.43Z" fill="#0458E0" fill-opacity="1.000000" fill-rule="evenodd"></path>
</svg></svg></g></g></svg>