<svg width="226.000000" height="226.000000" viewBox="0 0 226 226" fill="none" xmlns="http://www.w3.org/2000/svg" xmlns:xlink="http://www.w3.org/1999/xlink">
	<desc>
			Created with Pixso.
	</desc>
	<defs/>
	<g opacity="0.700000">
		<path id="Vector" d="M64.69 112.99L64.69 225.98L70.72 225.98L76.75 225.98L76.76 162.56C76.76 127.67 76.93 98.93 77.14 98.69C77.34 98.44 78.07 97.95 78.76 97.6C79.45 97.25 83.04 95.39 86.73 93.47C90.42 91.54 93.64 90.08 93.89 90.21C94.15 90.36 94.34 118.69 94.34 158.22L94.34 225.98L111.68 225.98L129.01 225.98L129 169.27L129 112.56L125.15 110.54C123.03 109.43 120.15 107.96 118.75 107.26C117.34 106.57 115.24 105.5 114.06 104.89L111.93 103.79L111.91 73.28L111.9 42.76L102.53 34.26C97.38 29.58 86.76 19.96 78.93 12.88L64.69 0L64.69 112.99ZM145.09 133.8L145.09 225.98L160.92 225.98L176.75 225.98L176.75 190.25L176.75 154.52L179.6 152.33C183.31 149.49 184.77 148.11 185.26 147.01C185.57 146.31 185.66 86.94 185.36 83.6C185.32 83.18 183.54 81.06 181.39 78.88C179.25 76.71 176.26 73.63 174.74 72.05C173.22 70.47 171.06 68.26 169.95 67.15C166.68 63.89 162.06 59.13 160.16 57.09C159.2 56.04 155.41 52.14 151.75 48.4L145.09 41.62L145.09 133.8ZM23.49 175.43L23.49 226L33.91 225.87L44.34 225.75L44.47 179.16L44.6 132.56L41.32 131.39C39.52 130.75 37.09 129.84 35.92 129.35C31.69 127.62 24.31 124.86 23.91 124.86C23.67 124.86 23.49 147.62 23.49 175.43ZM198.85 184.81L198.85 225.98L212.43 225.98L226 225.98L225.87 193.93L225.74 161.87L217.45 156.27C212.89 153.19 206.84 149.09 204.01 147.16L198.85 143.65L198.85 184.81ZM0.19 175.71C0.03 176.17 -0.04 187.61 0.01 201.15L0.12 225.75L6.41 225.75L12.69 225.75L12.82 200.59L12.95 175.42L7.79 175.41C4.96 175.41 2.15 175.29 1.55 175.15C0.78 174.96 0.39 175.12 0.19 175.71Z" fill="#0459E0" fill-opacity="1.000000" fill-rule="evenodd"/>
	</g>
</svg>
