<svg width="32.000000" height="32.000000" viewBox="0 0 32 32" fill="none" xmlns="http://www.w3.org/2000/svg" xmlns:xlink="http://www.w3.org/1999/xlink">
	<desc>
			Created with Pixso.
	</desc>
	<defs/>
	<g opacity="0.800000">
		<path id="Vector 47" d="M24.7 8.7L8.7 24.7L7.29 23.29L23.29 7.29L24.7 8.7ZM23.29 7.32L23.29 7.29C23.68 6.89 24.31 6.89 24.7 7.29C25.1 7.68 25.1 8.31 24.7 8.7L24.67 8.7L23.29 7.32ZM8.7 24.67L8.7 24.7C8.31 25.1 7.68 25.1 7.29 24.7C6.89 24.31 6.89 23.68 7.29 23.29L7.32 23.29L8.7 24.67Z" fill="#242424" fill-opacity="1.000000" fill-rule="evenodd"/>
		<path id="Vector 48" d="M7.29 8.7L23.29 24.7L24.7 23.29L8.7 7.29L7.29 8.7ZM8.7 7.32L8.7 7.29C8.31 6.89 7.68 6.89 7.29 7.29C6.89 7.68 6.89 8.31 7.29 8.7L7.32 8.7L8.7 7.32ZM23.29 24.67L23.29 24.7C23.68 25.1 24.31 25.1 24.7 24.7C25.1 24.31 25.1 23.68 24.7 23.29L24.67 23.29L23.29 24.67Z" fill="#242424" fill-opacity="1.000000" fill-rule="evenodd"/>
	</g>
</svg>
