<svg width="16.000000" height="16.000000" viewBox="0 0 16 16" fill="none" xmlns="http://www.w3.org/2000/svg" xmlns:xlink="http://www.w3.org/1999/xlink">
	<desc>
			Created with Pixso.
	</desc>
	<defs/>
	<rect id="Phone_fill" width="16.000000" height="16.000000" fill="#FFFFFF" fill-opacity="0"/>
	<path id="Vector 189" d="M4.86 1.8L4.45 2.21C3.04 3.62 2.88 5.84 4.08 7.44L4.68 8.24C5.55 9.41 6.58 10.44 7.75 11.31L8.55 11.91C10.15 13.11 12.37 12.95 13.78 11.54L14.19 11.13C14.45 10.87 14.45 10.45 14.19 10.19L12.47 8.47C12.21 8.21 11.78 8.21 11.52 8.47L10.33 9.66C10.13 9.86 9.83 9.91 9.57 9.78C8.12 9.06 6.93 7.87 6.21 6.42C6.08 6.16 6.13 5.86 6.33 5.66L7.52 4.47C7.78 4.21 7.78 3.78 7.52 3.52L5.8 1.8C5.54 1.54 5.12 1.54 4.86 1.8Z" fill="#0458E0" fill-opacity="1.000000" fill-rule="evenodd"/>
</svg>
