<svg width="280.000000" height="280.000000" viewBox="0 0 280 280" fill="none" xmlns="http://www.w3.org/2000/svg" xmlns:xlink="http://www.w3.org/1999/xlink">
	<desc>
			Created with Pixso.
	</desc>
	<defs/>
	<g opacity="0.700000">
		<path id="Vector" d="M80.15 139.98L80.15 279.97L87.62 279.97L95.09 279.97L95.1 201.4C95.11 158.18 95.32 122.57 95.57 122.27C95.82 121.96 96.73 121.36 97.58 120.93C98.44 120.49 102.88 118.19 107.45 115.8C112.02 113.41 116.02 111.6 116.32 111.77C116.65 111.95 116.88 147.05 116.88 196.02L116.88 279.97L138.36 279.97L159.84 279.97L159.83 209.71L159.82 139.45L155.05 136.96C152.42 135.58 148.85 133.76 147.12 132.89C145.38 132.03 142.77 130.71 141.32 129.96L138.67 128.6L138.65 90.79L138.64 52.98L127.03 42.44C120.65 36.65 107.49 24.73 97.79 15.95L80.15 0L80.15 139.98ZM179.76 165.77L179.76 279.97L199.37 279.97L218.98 279.97L218.98 235.71L218.98 191.44L222.52 188.73C227.1 185.21 228.92 183.5 229.53 182.13C229.91 181.27 230.02 107.71 229.65 103.58C229.6 103.06 227.39 100.43 224.74 97.73C222.08 95.03 218.37 91.22 216.49 89.26C214.6 87.3 211.94 84.57 210.56 83.2C206.51 79.15 200.78 73.26 198.43 70.73C197.24 69.44 192.54 64.59 188.01 59.97L179.76 51.56L179.76 165.77ZM29.1 217.35L29.1 280L42.02 279.85L54.94 279.7L55.1 221.97L55.25 164.24L51.2 162.79C48.97 162 45.95 160.86 44.5 160.27C39.26 158.11 30.12 154.7 29.62 154.7C29.33 154.7 29.1 182.89 29.1 217.35ZM246.37 228.97L246.37 279.97L263.18 279.97L280 279.97L279.84 240.26L279.68 200.55L269.4 193.61C263.76 189.8 256.26 184.72 252.75 182.32L246.37 177.97L246.37 228.97ZM0.24 217.7C0.04 218.26 -0.05 232.44 0.02 249.21L0.16 279.7L7.94 279.7L15.72 279.7L15.88 248.51L16.04 217.33L9.65 217.33C6.14 217.32 2.66 217.18 1.93 217C0.97 216.77 0.49 216.97 0.24 217.7Z" fill="#0459E0" fill-opacity="1.000000" fill-rule="evenodd"/>
	</g>
</svg>
