<svg width="188" height="52" viewBox="0 0 188 52" fill="none" xmlns="http://www.w3.org/2000/svg">
<path fill-rule="evenodd" clip-rule="evenodd" d="M11.4508 19.9984V39.9967H12.518H13.5853L13.5866 28.7717C13.5874 22.5979 13.6174 17.5109 13.6533 17.4674C13.6893 17.4239 13.8187 17.3377 13.941 17.2757C14.0634 17.2139 14.6978 16.8845 15.3508 16.5437C16.004 16.2028 16.5743 15.9436 16.6181 15.9678C16.6647 15.9934 16.698 21.0074 16.698 28.0042V39.9967H19.7663H22.8345L22.8334 29.9595L22.8323 19.9223L22.1504 19.5659C21.7754 19.3699 21.2655 19.1087 21.0175 18.9853C20.7696 18.862 20.3965 18.6735 20.1887 18.5662L19.8107 18.3714L19.8083 12.9701L19.8059 7.56875L18.148 6.06415C17.2361 5.23663 15.3562 3.53367 13.9704 2.27977L11.4508 0V19.9984ZM25.6803 23.6817V39.9967H28.4819H31.2833V33.6732V27.3495L31.7887 26.9619C32.4442 26.4589 32.7037 26.2151 32.7906 26.0198C32.8453 25.8971 32.8611 15.3881 32.8074 14.7982C32.8006 14.7238 32.485 14.3477 32.1059 13.9623C31.7269 13.577 31.1966 13.0326 30.9275 12.7527C30.6585 12.4727 30.2773 12.0826 30.0803 11.8859C29.5019 11.3083 28.6837 10.4668 28.3484 10.1049C28.1772 9.92011 27.5069 9.22832 26.8588 8.56764L25.6803 7.36642V23.6817ZM4.15821 31.05V40L6.0036 39.9786L7.84899 39.9572L7.87165 31.7102L7.89431 23.4633L7.31466 23.2567C6.99588 23.1431 6.56538 22.9806 6.35823 22.8956C5.60916 22.5884 4.30382 22.0999 4.2319 22.0999C4.19126 22.0999 4.15821 26.1275 4.15821 31.05ZM35.1964 32.711V39.9967H37.5982H40L39.9772 34.3237L39.9544 28.6506L38.487 27.6597C37.6799 27.1147 36.6093 26.3891 36.108 26.047L35.1964 25.4252V32.711ZM0.0343278 31.1005C0.00684695 31.1807 -0.00702896 33.2063 0.00355178 35.6018L0.0227592 39.9572H1.13444H2.24613L2.26908 35.5027L2.29211 31.0484L1.37972 31.0472C0.877959 31.0467 0.381257 31.0257 0.275876 31.0004C0.139002 30.9678 0.0700819 30.9962 0.0343278 31.1005Z" fill="#0459E0"/>
<path fill-rule="evenodd" clip-rule="evenodd" d="M154.643 16.2863C152.696 16.7805 151.184 17.8716 150.385 19.3573C150.095 19.8974 149.924 20.3726 149.806 21.3122C149.791 21.4272 149.778 21.5491 149.765 21.6789C149.672 22.601 149.613 23.9225 149.543 25.9905C149.225 35.4449 149.869 37.7072 153.309 39.2227C156.482 40.6206 161.058 40.0744 163.094 38.0549C164.744 36.4169 164.921 35.467 164.921 28.2338C164.921 24.0128 164.845 21.752 164.481 20.3212C164.466 20.2613 164.45 20.203 164.434 20.146C164.146 19.1345 163.695 18.5539 162.993 17.9426C161.064 16.2609 157.515 15.5571 154.643 16.2863ZM167.473 28.2984C167.45 25.0842 167.447 22.1336 167.462 20.0282L167.462 19.9227C167.476 18.0798 167.503 16.9103 167.541 16.8208C167.65 16.565 168.811 16.4716 171.882 16.4716C174.187 16.4716 176.073 16.5276 176.073 16.5956C176.073 16.6636 176.422 18.8175 176.848 21.3816C177.274 23.9453 177.622 26.233 177.622 26.465C177.622 26.6969 177.694 26.8225 177.781 26.744C177.868 26.6652 178.219 24.617 178.561 22.1926C178.656 21.5202 178.734 20.9254 178.802 20.3995C179.087 18.2229 179.217 17.2259 179.766 16.7868C180.23 16.4158 180.993 16.4432 182.402 16.4937C182.805 16.5081 183.26 16.5245 183.776 16.5339L188 16.6113V28.0219V39.4326L185.134 39.4636L182.269 39.4939L182.244 32.0978C182.231 28.0298 182.163 24.8273 182.094 24.9805C181.893 25.4261 180.1 37.3381 180.1 38.229C180.1 39.2623 179.842 39.3882 177.614 39.4423L175.778 39.4876L175.594 38.232C175.493 37.5417 175.223 35.9096 174.994 34.6052C174.765 33.3011 174.322 30.6021 174.009 28.6073L173.44 24.9805L173.358 32.2697L173.275 39.5589L170.415 39.4928L167.554 39.4267L167.473 28.2984ZM147.703 17.3782C147.583 17.8541 147.468 19.6739 147.439 21.5052C147.438 21.5943 147.437 21.6834 147.436 21.7723L147.434 21.8896C147.382 26.1222 147.061 26.702 144.376 27.66L143.122 28.1075L144.186 28.2969C145.391 28.5113 146.371 29.1602 146.942 30.1217C147.179 30.521 147.364 32.1483 147.416 34.2951C147.462 36.2301 147.597 38.1902 147.715 38.6504L147.93 39.4876L144.969 39.4689C143.34 39.4584 141.923 39.3743 141.82 39.2817C141.377 38.8827 141.082 36.7636 141.076 33.9297C141.068 30.6988 140.738 29.8628 139.471 29.8628C138.938 29.8628 138.9 30.1834 138.9 34.675V39.4876H135.647H132.395L132.394 27.9797V23.2379V22.7438V16.4716H135.647H138.9V21.354C138.9 21.6555 138.9 21.9393 138.901 22.2062C138.901 22.3619 138.902 22.5119 138.903 22.6564C138.922 25.5848 139.019 26.236 139.342 26.236C139.945 26.236 140.728 25.4904 140.898 24.7518C140.952 24.5166 141.025 23.5984 141.085 22.4609C141.092 22.3185 141.1 22.1728 141.107 22.0245C141.123 21.6716 141.138 21.3044 141.151 20.9352C141.308 16.4738 141.31 16.4716 144.976 16.4716H147.933L147.703 17.3782ZM129.607 23.4862L129.607 22.9749L129.606 16.4716H126.852H124.098L122.649 20.5867C122.535 20.9104 122.427 21.2188 122.324 21.512C122.031 22.3442 121.782 23.0536 121.57 23.643C121.495 23.8497 121.425 24.0417 121.359 24.2189C120.547 26.4066 120.382 26.3639 120.344 24.309C120.34 24.1355 120.338 23.9477 120.336 23.7457C120.333 23.3445 120.332 22.8872 120.331 22.375V22.3731V22.3712V22.3695V22.3678V22.3661V22.3645V22.363V22.3615V22.36V22.3587V22.3573V22.356V22.3548V22.3536V22.3524C120.33 22.1023 120.33 21.8392 120.329 21.5631L120.313 16.4716H117.525H114.737V24.2128V24.8055V28.0104V39.5496L117.602 39.4939L120.468 39.4382L121.146 37.5099C121.519 36.4494 122.286 34.2637 122.85 32.6526L123.875 29.7231L124.03 34.6052L124.185 39.4876H126.896H129.607L129.607 27.9797L129.607 23.4862ZM108.077 21.0749L108.044 24.7724L108.038 25.3975L107.995 30.2812L107.914 39.4876H104.665H101.417L101.417 27.9797L101.416 25.9816L101.416 25.3276L101.416 16.4716H107.147H112.878V18.6916V20.912L110.477 20.9935L108.077 21.0749ZM98.6278 26.2272L98.6278 25.5615L98.6281 16.4716H94.4643C92.1741 16.4716 90.2234 16.584 90.129 16.7215C90.0348 16.8589 89.6717 19.0244 89.3227 21.534C88.9737 24.0436 88.6406 26.2222 88.5827 26.3753L88.5777 26.3882L88.5732 26.3991L88.5702 26.4063L88.4138 26.4195C88.2374 26.0919 87.9831 24.6582 87.4868 21.367C87.1176 18.9187 86.7465 16.8163 86.6625 16.6942C86.5788 16.5717 84.6365 16.4716 82.3466 16.4716H78.1829V27.2807V27.9902V28.024V39.5088L81.0375 39.4569L83.8922 39.405L83.9399 38.6093C83.9664 38.1715 84.02 34.9888 84.0591 31.5364L84.1046 27.5043L84.1128 26.7813L84.3699 26.7597L84.4836 27.471L85.1781 31.8154C85.7548 35.4214 86.2921 38.6228 86.3728 38.9294C86.5014 39.4177 86.7631 39.4846 88.4694 39.4633L90.419 39.4386L90.7694 37.2313C90.962 36.0172 91.45 32.8266 91.8537 30.1415L92.3592 26.7789L92.4644 26.079L92.6051 26.0672L92.6201 26.756L92.7425 32.3735L92.8975 39.4876H95.7626H98.6278V27.9797L98.6278 26.2272ZM75.3542 28.272L75.3304 27.7007L75.3229 27.5218L75.2399 25.5385H73.3812H71.5225L71.4327 23.2371L71.3425 20.9352H73.5235H75.7044V18.7036V16.4716H70.335C67.3815 16.4716 64.8722 16.5552 64.7589 16.6576C64.6452 16.7599 64.5522 21.9072 64.5522 28.0959V28.4306V29.2183V39.3478L69.6638 39.3979C72.475 39.4252 75.0885 39.4565 75.4723 39.4678C76.1388 39.4868 76.1692 39.3901 76.1692 37.2555V35.0239L73.736 34.8842L71.3031 34.7449L71.3197 32.5827C71.3291 31.3933 71.3436 30.295 71.352 30.1415C71.3606 29.9854 72.2599 29.8628 73.3942 29.8628H75.4205L75.3542 28.272ZM61.8974 28.3776C61.8119 28.4825 61.7229 28.5825 61.6301 28.6774C61.2567 29.0597 60.8226 29.3616 60.3101 29.5895C59.4616 29.9667 58.3984 30.1409 57.0402 30.1411L54.9491 30.1415V34.7449V39.3478L52.5483 39.3796C51.2278 39.3975 49.7643 39.4524 49.2957 39.5025L48.4438 39.5936V30.6267C48.4438 30.3011 48.4549 30.0204 48.4743 29.7798C48.4643 29.7841 48.4541 29.7883 48.4438 29.7924V28.0044V16.4152H52.0805L53.6326 16.516C61.8749 16.6755 62.5389 17.2063 62.5389 23.6349C62.5389 27.1956 62.4748 27.6686 61.8974 28.3776ZM156.422 21.0726C156.437 20.9639 156.453 20.8643 156.47 20.7731C156.642 19.8728 156.944 19.7918 157.472 19.8833C157.674 19.9184 157.879 20.2055 158.035 20.6478C158.065 20.732 158.093 20.8218 158.119 20.9166C158.145 21.0119 158.168 21.1122 158.19 21.2169C158.33 21.9061 158.403 25.456 158.353 29.1056C158.255 36.1401 158.148 36.6175 156.806 35.9709C156.289 35.7213 156.247 35.1405 156.247 28.0952C156.247 24.2894 156.269 22.196 156.422 21.0726ZM56.797 25.6965C57.2459 24.9408 57.2068 21.1272 56.7459 20.7122C56.5414 20.528 56.0535 20.3775 55.6616 20.3775C54.9634 20.3775 54.9491 20.4361 54.9491 23.3065C54.9491 26.2341 54.9498 26.236 55.7127 26.236C56.1505 26.236 56.613 26.0058 56.797 25.6965Z" fill="#0459E0"/>
</svg>
