<svg width="25.000000" height="25.000000" viewBox="0 0 25 25" fill="none" xmlns="http://www.w3.org/2000/svg" xmlns:xlink="http://www.w3.org/1999/xlink">
	<desc>
			Created with Pixso.
	</desc>
	<defs/>
	<path id="Vector 189" d="M3.13 0.14L2.79 0.48C-0.64 3.91 -1.02 9.34 1.89 13.22L2.57 14.13C4.69 16.96 7.21 19.48 10.04 21.6L10.95 22.28C14.83 25.2 20.26 24.81 23.69 21.38L24.03 21.04C24.66 20.41 24.66 19.38 24.03 18.75L20.35 15.07C19.72 14.44 18.69 14.44 18.06 15.07L15.47 17.66C15.03 18.1 14.35 18.21 13.78 17.93C10.52 16.3 7.87 13.65 6.24 10.39C5.96 9.83 6.07 9.14 6.52 8.7L9.1 6.12C9.73 5.48 9.73 4.45 9.1 3.82L5.43 0.14C4.79 -0.49 3.76 -0.49 3.13 0.14Z" fill="#FFFFFF" fill-opacity="1.000000" fill-rule="evenodd"/>
</svg>
