<svg width="16" height="16" viewBox="0 0 16 16" fill="none" xmlns="http://www.w3.org/2000/svg">
<path fill-rule="evenodd" clip-rule="evenodd" d="M2.58579 3.91928C2 4.50507 2 5.44788 2 7.3335V8.66683C2 10.5524 2 11.4953 2.58579 12.081C3.17157 12.6668 4.11438 12.6668 6 12.6668H10C11.8856 12.6668 12.8284 12.6668 13.4142 12.081C14 11.4953 14 10.5524 14 8.66683V7.3335C14 5.44788 14 4.50507 13.4142 3.91928C12.8284 3.3335 11.8856 3.3335 10 3.3335H6C4.11438 3.3335 3.17157 3.3335 2.58579 3.91928ZM4.3698 5.44554C4.06345 5.24131 3.64953 5.32409 3.4453 5.63044C3.24106 5.9368 3.32385 6.35071 3.6302 6.55494L7.2604 8.97508C7.70827 9.27365 8.29173 9.27366 8.7396 8.97508L12.3698 6.55494C12.6762 6.35071 12.7589 5.9368 12.5547 5.63044C12.3505 5.32409 11.9366 5.24131 11.6302 5.44554L8 7.86568L4.3698 5.44554Z" fill="#0459E0"/>
</svg>
